Coordinates
version=1
nRows=9
nColumns=24
inDegrees=yes

Units are S.I. units (second, meters, Newtons, ...)
Angles are in degrees.

endheader
time	pelvis_tilt	pelvis_list	pelvis_rotation	pelvis_tx	pelvis_ty	pelvis_tz	hip_flexion_r	hip_adduction_r	hip_rotation_r	knee_angle_r	ankle_angle_r	subtalar_angle_r	mtp_angle_r	hip_flexion_l	hip_adduction_l	hip_rotation_l	knee_angle_l	ankle_angle_l	subtalar_angle_l	mtp_angle_l	lumbar_extension	lumbar_bending	lumbar_rotation
      1.22066667	     -1.39012208	      5.05115395	     -2.48616489	      0.17259194	      1.00988647	      0.30709072	     13.96853010	     -8.01087409	     -3.10774711	    -65.78784554	    -10.10827966	     -5.86615012	      5.55824948	      7.93982886	     10.89230711	      8.76425181	    -13.44662557	      6.32732761	    -16.61885514	     -7.14308771	    -10.71104850	      1.47274223	     -2.31147164
      1.22483333	     -1.38563178	      4.80861858	     -2.54724897	      0.17759054	      1.01081426	      0.30708776	     14.50693986	     -7.69410880	     -3.09378482	    -65.56468534	     -9.14147492	     -6.14545266	      5.52730320	      7.42192591	     10.61302663	      8.72073083	    -13.05868818	      6.39811130	    -16.45599818	     -7.14543535	    -10.74172605	      1.83655476	     -2.58795964
      1.22900000	     -1.40994032	      4.56946799	     -2.59161964	      0.18255053	      1.01166775	      0.30704763	     15.06784309	     -7.38352410	     -3.10611481	    -65.29147838	     -8.18765757	     -6.45427597	      5.51064078	      6.93790382	     10.34578431	      8.73712713	    -12.67462894	      6.42932106	    -16.40277297	     -7.15024834	    -10.75881800	      2.17626342	     -2.70901173
      1.23316667	     -1.39090320	      4.33589402	     -2.61254461	      0.18755396	      1.01258372	      0.30698120	     15.54791057	     -7.08827104	     -3.15489019	    -64.93228079	     -7.25733380	     -6.70523973	      5.41855575	      6.38255833	     10.08928508	      8.81199550	    -12.24431155	      6.43876062	    -16.38203732	     -7.17197206	    -10.79845663	      2.53008926	     -3.05210203
      1.23733333	     -1.42567937	      4.09255002	     -2.63799101	      0.19253450	      1.01338158	      0.30692606	     16.07793564	     -6.76790963	     -3.18914393	    -64.51824725	     -6.36909805	     -6.96178080	      5.33402772	      5.90022433	      9.81919760	      8.86777215	    -11.84195141	      6.45504634	    -16.37607918	     -7.19457351	    -10.79169990	      2.87993144	     -3.25079822
      1.24150000	     -1.44826317	      3.86036435	     -2.65613661	      0.19749945	      1.01417313	      0.30687377	     16.57953026	     -6.45815952	     -3.23649368	    -64.04635692	     -5.47777686	     -7.27694598	      5.30112852	      5.41977561	      9.55970167	      8.88817841	    -11.46411498	      6.45925494	    -16.34017496	     -7.20645911	    -10.81018605	      3.18909937	     -3.35157639
      1.24566667	     -1.43601328	      3.59832996	     -2.65998072	      0.20249732	      1.01500346	      0.30678282	     17.00841873	     -6.12232137	     -3.30802747	    -63.48255468	     -4.67958660	     -7.53220074	      5.19125887	      4.87399393	      9.27330382	      8.98330243	    -11.03742210	      6.48158282	    -16.33228137	     -7.23753328	    -10.85258516	      3.60173282	     -3.67148682
      1.24983333	     -1.47185795	      3.36887535	     -2.65588903	      0.20745649	      1.01570074	      0.30671316	     17.48827192	     -5.81434973	     -3.37806373	    -62.89271634	     -3.82979709	     -7.84398257	      5.14155106	      4.41763324	      9.01707584	      9.01305933	    -10.67674816	      6.48191836	    -16.29744952	     -7.25432809	    -10.86012486	      3.91315594	     -3.78436002
      1.25400000	     -1.42207083	      3.11205368	     -2.62974074	      0.21246957	      1.01653325	      0.30660970	     17.82853396	     -5.48782499	     -3.48453419	    -62.19469543	     -3.08609015	     -8.15350450	      4.91277697	      3.83285281	      8.73641946	      9.12663123	    -10.25089096	      6.48273514	    -16.29364361	     -7.31754883	    -10.93523400	      4.30191680	     -4.19016425
